<mxfile host="app.diagrams.net" modified="2021-10-04T10:08:05.482Z" agent="5.0 (Windows NT 10.0; Win64; x64) AppleWebKit/537.36 (KHTML, like Gecko) Chrome/94.0.4606.61 Safari/537.36" etag="-a9z0xOQJppxu78JOwZv" version="15.4.1" type="github">
  <diagram id="gMrDqSuDuvuPc_SX7rfT" name="Page-1">
    <mxGraphModel dx="782" dy="681" grid="1" gridSize="10" guides="1" tooltips="1" connect="1" arrows="1" fold="1" page="1" pageScale="1" pageWidth="850" pageHeight="1100" math="0" shadow="0">
      <root>
        <mxCell id="0" />
        <mxCell id="1" parent="0" />
        <mxCell id="lmd7fpeS80V2Vtp8o7P9-2" value="DB INTERACTION" style="shape=cylinder3;whiteSpace=wrap;html=1;boundedLbl=1;backgroundOutline=1;size=15;fillColor=#647687;strokeColor=#314354;fontColor=#ffffff;" vertex="1" parent="1">
          <mxGeometry x="225.32" y="570" width="130" height="80" as="geometry" />
        </mxCell>
        <mxCell id="lmd7fpeS80V2Vtp8o7P9-4" value="MCS API" style="rounded=1;whiteSpace=wrap;html=1;fillColor=#fff2cc;strokeColor=#d6b656;gradientColor=#ffd966;" vertex="1" parent="1">
          <mxGeometry x="560" y="80" width="120" height="60" as="geometry" />
        </mxCell>
        <mxCell id="lmd7fpeS80V2Vtp8o7P9-5" value="MESA API" style="rounded=1;whiteSpace=wrap;html=1;fillColor=#fff2cc;strokeColor=#d6b656;gradientColor=#ffd966;" vertex="1" parent="1">
          <mxGeometry x="560" y="160" width="120" height="60" as="geometry" />
        </mxCell>
        <mxCell id="lmd7fpeS80V2Vtp8o7P9-6" value="Function Gen API" style="rounded=1;whiteSpace=wrap;html=1;fillColor=#fff2cc;strokeColor=#d6b656;gradientColor=#ffd966;" vertex="1" parent="1">
          <mxGeometry x="560" y="240" width="120" height="60" as="geometry" />
        </mxCell>
        <mxCell id="lmd7fpeS80V2Vtp8o7P9-7" value="PSU API" style="rounded=1;whiteSpace=wrap;html=1;fillColor=#fff2cc;strokeColor=#d6b656;gradientColor=#ffd966;" vertex="1" parent="1">
          <mxGeometry x="560" y="320" width="120" height="60" as="geometry" />
        </mxCell>
        <mxCell id="lmd7fpeS80V2Vtp8o7P9-42" style="edgeStyle=orthogonalEdgeStyle;rounded=0;orthogonalLoop=1;jettySize=auto;html=1;entryX=0;entryY=0.5;entryDx=0;entryDy=0;exitX=0.5;exitY=0;exitDx=0;exitDy=0;" edge="1" parent="1" source="lmd7fpeS80V2Vtp8o7P9-9" target="lmd7fpeS80V2Vtp8o7P9-34">
          <mxGeometry relative="1" as="geometry" />
        </mxCell>
        <mxCell id="lmd7fpeS80V2Vtp8o7P9-68" style="edgeStyle=orthogonalEdgeStyle;rounded=0;orthogonalLoop=1;jettySize=auto;html=1;entryX=0.6;entryY=0;entryDx=0;entryDy=0;entryPerimeter=0;" edge="1" parent="1" source="lmd7fpeS80V2Vtp8o7P9-9" target="lmd7fpeS80V2Vtp8o7P9-67">
          <mxGeometry relative="1" as="geometry" />
        </mxCell>
        <mxCell id="lmd7fpeS80V2Vtp8o7P9-9" value="Test Sequencer" style="swimlane;fontStyle=0;childLayout=stackLayout;horizontal=1;startSize=30;horizontalStack=0;resizeParent=1;resizeParentMax=0;resizeLast=0;collapsible=1;marginBottom=0;fillColor=#1ba1e2;strokeColor=#006EAF;fontColor=#ffffff;" vertex="1" parent="1">
          <mxGeometry x="10" y="271.36" width="140" height="120" as="geometry" />
        </mxCell>
        <mxCell id="lmd7fpeS80V2Vtp8o7P9-10" value="Test 1" style="text;strokeColor=#0e8088;fillColor=#b0e3e6;align=left;verticalAlign=middle;spacingLeft=4;spacingRight=4;overflow=hidden;points=[[0,0.5],[1,0.5]];portConstraint=eastwest;rotatable=0;" vertex="1" parent="lmd7fpeS80V2Vtp8o7P9-9">
          <mxGeometry y="30" width="140" height="30" as="geometry" />
        </mxCell>
        <mxCell id="lmd7fpeS80V2Vtp8o7P9-11" value="Test 2" style="text;strokeColor=#0e8088;fillColor=#b0e3e6;align=left;verticalAlign=middle;spacingLeft=4;spacingRight=4;overflow=hidden;points=[[0,0.5],[1,0.5]];portConstraint=eastwest;rotatable=0;" vertex="1" parent="lmd7fpeS80V2Vtp8o7P9-9">
          <mxGeometry y="60" width="140" height="30" as="geometry" />
        </mxCell>
        <mxCell id="lmd7fpeS80V2Vtp8o7P9-12" value="Test 3" style="text;strokeColor=#0e8088;fillColor=#b0e3e6;align=left;verticalAlign=middle;spacingLeft=4;spacingRight=4;overflow=hidden;points=[[0,0.5],[1,0.5]];portConstraint=eastwest;rotatable=0;" vertex="1" parent="lmd7fpeS80V2Vtp8o7P9-9">
          <mxGeometry y="90" width="140" height="30" as="geometry" />
        </mxCell>
        <mxCell id="lmd7fpeS80V2Vtp8o7P9-13" value="Test Scripts&amp;nbsp; &amp;nbsp;" style="strokeWidth=2;html=1;shape=mxgraph.flowchart.multi-document;whiteSpace=wrap;fillColor=#b0e3e6;strokeColor=#0e8088;" vertex="1" parent="1">
          <mxGeometry x="255" y="147.32" width="145" height="302.68" as="geometry" />
        </mxCell>
        <mxCell id="lmd7fpeS80V2Vtp8o7P9-15" value="" style="verticalLabelPosition=bottom;verticalAlign=top;html=1;shape=mxgraph.basic.diag_stripe;dx=10;gradientColor=#d5739d;fillColor=#e6d0de;strokeColor=#996185;" vertex="1" parent="1">
          <mxGeometry x="120" y="180" width="170" height="100" as="geometry" />
        </mxCell>
        <mxCell id="lmd7fpeS80V2Vtp8o7P9-28" value="" style="verticalLabelPosition=bottom;verticalAlign=top;html=1;shape=mxgraph.basic.diag_stripe;dx=10;rotation=90;gradientColor=#d5739d;fillColor=#e6d0de;strokeColor=#996185;" vertex="1" parent="1">
          <mxGeometry x="80" y="343.02" width="103.26" height="60.35" as="geometry" />
        </mxCell>
        <mxCell id="lmd7fpeS80V2Vtp8o7P9-30" value="Test System Logging" style="ellipse;whiteSpace=wrap;html=1;fillColor=#d0cee2;strokeColor=#56517e;" vertex="1" parent="1">
          <mxGeometry x="120" y="391.36" width="120" height="80" as="geometry" />
        </mxCell>
        <mxCell id="lmd7fpeS80V2Vtp8o7P9-31" value="Relay Control" style="rounded=1;whiteSpace=wrap;html=1;fillColor=#fff2cc;strokeColor=#d6b656;gradientColor=#ffd966;" vertex="1" parent="1">
          <mxGeometry x="560" y="400.68" width="120" height="60" as="geometry" />
        </mxCell>
        <mxCell id="lmd7fpeS80V2Vtp8o7P9-39" style="edgeStyle=orthogonalEdgeStyle;rounded=0;orthogonalLoop=1;jettySize=auto;html=1;" edge="1" parent="1" source="lmd7fpeS80V2Vtp8o7P9-34">
          <mxGeometry relative="1" as="geometry">
            <mxPoint x="560" y="117" as="targetPoint" />
            <Array as="points">
              <mxPoint x="530" y="40" />
              <mxPoint x="530" y="117" />
            </Array>
          </mxGeometry>
        </mxCell>
        <mxCell id="lmd7fpeS80V2Vtp8o7P9-43" style="edgeStyle=orthogonalEdgeStyle;rounded=0;orthogonalLoop=1;jettySize=auto;html=1;entryX=0.008;entryY=0.617;entryDx=0;entryDy=0;entryPerimeter=0;" edge="1" parent="1" target="lmd7fpeS80V2Vtp8o7P9-5">
          <mxGeometry relative="1" as="geometry">
            <mxPoint x="510" y="200" as="targetPoint" />
            <mxPoint x="440" y="40" as="sourcePoint" />
          </mxGeometry>
        </mxCell>
        <mxCell id="lmd7fpeS80V2Vtp8o7P9-44" style="edgeStyle=orthogonalEdgeStyle;rounded=0;orthogonalLoop=1;jettySize=auto;html=1;entryX=0;entryY=0.5;entryDx=0;entryDy=0;" edge="1" parent="1" source="lmd7fpeS80V2Vtp8o7P9-34" target="lmd7fpeS80V2Vtp8o7P9-6">
          <mxGeometry relative="1" as="geometry" />
        </mxCell>
        <mxCell id="lmd7fpeS80V2Vtp8o7P9-45" style="edgeStyle=orthogonalEdgeStyle;rounded=0;orthogonalLoop=1;jettySize=auto;html=1;entryX=0;entryY=0.5;entryDx=0;entryDy=0;" edge="1" parent="1" source="lmd7fpeS80V2Vtp8o7P9-34" target="lmd7fpeS80V2Vtp8o7P9-31">
          <mxGeometry relative="1" as="geometry" />
        </mxCell>
        <mxCell id="lmd7fpeS80V2Vtp8o7P9-78" style="edgeStyle=orthogonalEdgeStyle;rounded=0;orthogonalLoop=1;jettySize=auto;html=1;entryX=0;entryY=0.644;entryDx=0;entryDy=0;entryPerimeter=0;" edge="1" parent="1" source="lmd7fpeS80V2Vtp8o7P9-34" target="lmd7fpeS80V2Vtp8o7P9-69">
          <mxGeometry relative="1" as="geometry" />
        </mxCell>
        <mxCell id="lmd7fpeS80V2Vtp8o7P9-82" style="edgeStyle=orthogonalEdgeStyle;rounded=0;orthogonalLoop=1;jettySize=auto;html=1;entryX=0;entryY=0.5;entryDx=0;entryDy=0;" edge="1" parent="1" source="lmd7fpeS80V2Vtp8o7P9-34" target="lmd7fpeS80V2Vtp8o7P9-72">
          <mxGeometry relative="1" as="geometry" />
        </mxCell>
        <mxCell id="lmd7fpeS80V2Vtp8o7P9-83" style="edgeStyle=orthogonalEdgeStyle;rounded=0;orthogonalLoop=1;jettySize=auto;html=1;entryX=1;entryY=0.5;entryDx=0;entryDy=0;entryPerimeter=0;" edge="1" parent="1" source="lmd7fpeS80V2Vtp8o7P9-34" target="lmd7fpeS80V2Vtp8o7P9-2">
          <mxGeometry relative="1" as="geometry">
            <Array as="points">
              <mxPoint x="450" y="40" />
              <mxPoint x="450" y="610" />
            </Array>
          </mxGeometry>
        </mxCell>
        <mxCell id="lmd7fpeS80V2Vtp8o7P9-34" value="System Component&amp;nbsp; Initialization" style="rounded=1;whiteSpace=wrap;html=1;fillColor=#ffcc99;strokeColor=#36393d;" vertex="1" parent="1">
          <mxGeometry x="200" y="10" width="240" height="60" as="geometry" />
        </mxCell>
        <mxCell id="lmd7fpeS80V2Vtp8o7P9-47" value="" style="verticalLabelPosition=bottom;verticalAlign=top;html=1;shape=mxgraph.basic.diag_stripe;dx=10;rotation=90;gradientColor=#d5739d;fillColor=#e6d0de;strokeColor=#996185;" vertex="1" parent="1">
          <mxGeometry x="46.63" y="408.37" width="100" height="55" as="geometry" />
        </mxCell>
        <mxCell id="lmd7fpeS80V2Vtp8o7P9-48" value="Debug Output Logging" style="ellipse;whiteSpace=wrap;html=1;fillColor=#d0cee2;strokeColor=#56517e;" vertex="1" parent="1">
          <mxGeometry x="85.64" y="480.10999999999996" width="120" height="80" as="geometry" />
        </mxCell>
        <mxCell id="lmd7fpeS80V2Vtp8o7P9-53" value="" style="html=1;shadow=0;dashed=0;align=center;verticalAlign=middle;shape=mxgraph.arrows2.twoWayArrow;dy=0.65;dx=22;gradientColor=#97d077;fillColor=#d5e8d4;strokeColor=#82b366;" vertex="1" parent="1">
          <mxGeometry x="375" y="160" width="195" height="20" as="geometry" />
        </mxCell>
        <mxCell id="lmd7fpeS80V2Vtp8o7P9-56" value="" style="html=1;shadow=0;dashed=0;align=center;verticalAlign=middle;shape=mxgraph.arrows2.twoWayArrow;dy=0.65;dx=22;gradientColor=#97d077;fillColor=#d5e8d4;strokeColor=#82b366;" vertex="1" parent="1">
          <mxGeometry x="375" y="240" width="195" height="20" as="geometry" />
        </mxCell>
        <mxCell id="lmd7fpeS80V2Vtp8o7P9-57" value="" style="html=1;shadow=0;dashed=0;align=center;verticalAlign=middle;shape=mxgraph.arrows2.twoWayArrow;dy=0.65;dx=22;gradientColor=#97d077;fillColor=#d5e8d4;strokeColor=#82b366;" vertex="1" parent="1">
          <mxGeometry x="375" y="323.02" width="195" height="20" as="geometry" />
        </mxCell>
        <mxCell id="lmd7fpeS80V2Vtp8o7P9-58" value="" style="html=1;shadow=0;dashed=0;align=center;verticalAlign=middle;shape=mxgraph.arrows2.twoWayArrow;dy=0.65;dx=22;rotation=15;gradientColor=#97d077;fillColor=#d5e8d4;strokeColor=#82b366;" vertex="1" parent="1">
          <mxGeometry x="369.91" y="380.68" width="210.21" height="20" as="geometry" />
        </mxCell>
        <mxCell id="lmd7fpeS80V2Vtp8o7P9-59" value="" style="html=1;shadow=0;dashed=0;align=center;verticalAlign=middle;shape=mxgraph.arrows2.twoWayArrow;dy=0.65;dx=22;rotation=90;gradientColor=#97d077;fillColor=#d5e8d4;strokeColor=#82b366;" vertex="1" parent="1">
          <mxGeometry x="205.64" y="483.37" width="169.36" height="20" as="geometry" />
        </mxCell>
        <mxCell id="lmd7fpeS80V2Vtp8o7P9-67" value="Test Report" style="strokeWidth=2;html=1;shape=mxgraph.flowchart.document2;whiteSpace=wrap;size=0.25;fillColor=#d5e8d4;gradientColor=#97d077;strokeColor=#82b366;" vertex="1" parent="1">
          <mxGeometry x="20" y="570" width="100" height="60" as="geometry" />
        </mxCell>
        <mxCell id="lmd7fpeS80V2Vtp8o7P9-69" value="CAN Controller" style="rounded=1;whiteSpace=wrap;html=1;fillColor=#fff2cc;strokeColor=#d6b656;gradientColor=#ffd966;" vertex="1" parent="1">
          <mxGeometry x="560" y="483.37" width="120" height="60" as="geometry" />
        </mxCell>
        <mxCell id="lmd7fpeS80V2Vtp8o7P9-72" value="GPS Simulator" style="rounded=1;whiteSpace=wrap;html=1;fillColor=#fff2cc;strokeColor=#d6b656;gradientColor=#ffd966;" vertex="1" parent="1">
          <mxGeometry x="560" y="560" width="120" height="60" as="geometry" />
        </mxCell>
        <mxCell id="lmd7fpeS80V2Vtp8o7P9-77" value="" style="shape=singleArrow;whiteSpace=wrap;html=1;rotation=30;gradientColor=#97d077;fillColor=#d5e8d4;strokeColor=#82b366;" vertex="1" parent="1">
          <mxGeometry x="291.18" y="485.61" width="300" height="20.71" as="geometry" />
        </mxCell>
        <mxCell id="lmd7fpeS80V2Vtp8o7P9-74" value="" style="shape=singleArrow;whiteSpace=wrap;html=1;rotation=30;gradientColor=#97d077;fillColor=#d5e8d4;strokeColor=#82b366;" vertex="1" parent="1">
          <mxGeometry x="330.76" y="424.9" width="260.42" height="20.71" as="geometry" />
        </mxCell>
      </root>
    </mxGraphModel>
  </diagram>
</mxfile>
